Coordinates
version=1
nRows=29
nColumns=38
inDegrees=no

Units are S.I. units (second, meters, Newtons, ...)
If the header above contains a line with 'inDegrees', this indicates whether rotational values are in degrees (yes) or radians (no).

endheader
time	pelvis_tilt	pelvis_list	pelvis_rotation	pelvis_tx	pelvis_ty	pelvis_tz	hip_flexion_r	hip_adduction_r	hip_rotation_r	knee_angle_r	ankle_angle_r	subtalar_angle_r	mtp_angle_r	hip_flexion_l	hip_adduction_l	hip_rotation_l	knee_angle_l	ankle_angle_l	subtalar_angle_l	mtp_angle_l	lumbar_extension	lumbar_bending	lumbar_rotation	arm_flex_r	arm_add_r	arm_rot_r	elbow_flex_r	pro_sup_r	wrist_flex_r	wrist_dev_r	arm_flex_l	arm_add_l	arm_rot_l	elbow_flex_l	pro_sup_l	wrist_flex_l	wrist_dev_l
2.05	0.0347973	-0.064767	-0.083287	0.879927	0.929502	-0.310215	0.0830778	0.166473	0.0221806	-0.741993	0.424104	-0.0365291	9.23335e-05	0.612222	-0.0756082	-0.0135619	-1.73773	-0.129277	-0.0492981	0.000189407	-0.34696	0.0543197	0.166956	-0.146439	-0.513797	0.080144	1.84358	1.54067	0.0392753	-0.0202569	-0.549113	-0.351344	-0.113692	1.93624	2.31083	-0.00485762	-0.00579529
2.06	0.0260093	-0.0470066	-0.0921268	0.879433	0.934221	-0.309647	0.0352642	0.142467	0.0336233	-0.692724	0.392141	-0.0365291	9.23335e-05	0.655525	-0.0617686	-0.0312199	-1.68593	-0.108374	-0.0492981	0.000189407	-0.334649	0.0301403	0.182507	-0.124246	-0.518296	0.084533	1.87502	1.5301	0.0392753	-0.0202569	-0.577213	-0.350579	-0.122125	1.94063	2.28252	-0.00485762	-0.00579529
2.07	0.0171792	-0.0287596	-0.100282	0.879321	0.939576	-0.309059	-0.0122464	0.116782	0.0407073	-0.639838	0.34587	-0.0365291	9.23335e-05	0.691757	-0.0495266	-0.0527792	-1.62156	-0.0881616	-0.0492981	0.000189407	-0.321842	0.00523162	0.196923	-0.106629	-0.521156	0.0859134	1.90773	1.52045	0.0392753	-0.0202569	-0.605259	-0.349683	-0.13172	1.94723	2.24886	-0.00485762	-0.00579529
2.08	0.00843657	-0.0105163	-0.106991	0.879552	0.945452	-0.308526	-0.0587681	0.0901289	0.0426332	-0.584815	0.285845	-0.0365291	9.23335e-05	0.720538	-0.0380591	-0.0762772	-1.5449	-0.0691199	-0.0492981	0.000189407	-0.308868	-0.0195597	0.209527	-0.0932163	-0.52274	0.0848752	1.94046	1.51223	0.0392753	-0.0202569	-0.63266	-0.348228	-0.142577	1.9554	2.21292	-0.00485762	-0.00579529
2.09	-0.000144266	0.00710907	-0.111666	0.880085	0.951704	-0.30811	-0.103623	0.0634439	0.0391105	-0.529326	0.213439	-0.0365291	9.23335e-05	0.741616	-0.0266148	-0.0996476	-1.45635	-0.0517008	-0.0492981	0.000189407	-0.295984	-0.0433087	0.219832	-0.0836694	-0.523405	0.0820484	1.97225	1.50569	0.0392753	-0.0202569	-0.658829	-0.345902	-0.154551	1.96456	2.17769	-0.00485762	-0.00579529
2.1	-0.00854474	0.0233786	-0.114	0.880879	0.958147	-0.30785	-0.146116	0.0378633	0.0304128	-0.475258	0.130871	-0.0365291	9.23335e-05	0.754897	-0.0147103	-0.120856	-1.35654	-0.0362241	-0.0492981	0.000189407	-0.28337	-0.0650303	0.227627	-0.0776902	-0.523485	0.0780232	2.00243	1.5008	0.0392753	-0.0202569	-0.68326	-0.342526	-0.167321	1.9743	2.14578	-0.00485762	-0.00579529
2.11	-0.0167844	0.037461	-0.114031	0.881888	0.964555	-0.307765	-0.185515	0.0146203	0.0173293	-0.424691	0.0411145	-0.0365291	9.23335e-05	0.760477	-0.00227431	-0.138083	-1.2465	-0.0228151	-0.0492981	0.000189407	-0.271112	-0.0837253	0.233027	-0.0750132	-0.523286	0.0732982	2.03059	1.49746	0.0392753	-0.0202569	-0.705575	-0.338051	-0.180471	1.9844	2.11927	-0.00485762	-0.00579529
2.12	-0.0248787	0.0485034	-0.112139	0.88306	0.97068	-0.307839	-0.221088	-0.00511947	0.00102826	-0.379818	-0.0523326	-0.0365291	9.23335e-05	0.758643	0.010294	-0.149962	-1.12784	-0.0113918	-0.0492981	0.000189407	-0.259243	-0.0984671	0.236454	-0.0753877	-0.523087	0.0682607	2.05649	1.49545	0.0392753	-0.0202569	-0.725526	-0.332536	-0.193539	1.99477	2.09944	-0.00485762	-0.00579529
2.13	-0.0327939	0.0557506	-0.108984	0.884353	0.976283	-0.308035	-0.252176	-0.0204472	-0.0171363	-0.34281	-0.145754	-0.0365291	9.23335e-05	0.749858	0.0221839	-0.15581	-1.00281	-0.00171226	-0.0492981	0.000189407	-0.247796	-0.108513	0.238548	-0.0785584	-0.523134	0.0631911	2.08003	1.49453	0.0392753	-0.0202569	-0.742978	-0.326114	-0.206072	2.00543	2.08664	-0.00485762	-0.00579529
2.14	-0.0404064	0.0586845	-0.105394	0.885745	0.981165	-0.308302	-0.278253	-0.0308754	-0.0358142	-0.31568	-0.235525	-0.0365291	9.23335e-05	0.734751	0.0323429	-0.15579	-0.874391	0.00653681	-0.0492981	0.000189407	-0.236859	-0.113422	0.240035	-0.0842498	-0.523637	0.0582825	2.10114	1.49444	0.0392753	-0.0202569	-0.757877	-0.318957	-0.217666	2.01639	2.08044	-0.00485762	-0.00579529
2.15	-0.0474447	0.0571432	-0.102214	0.887244	0.985171	-0.308579	-0.298975	-0.0364336	-0.0537928	-0.300164	-0.318344	-0.0365291	9.23335e-05	0.714114	0.039718	-0.150938	-0.746213	0.013635	-0.0492981	0.000189407	-0.22661	-0.113142	0.241569	-0.0921557	-0.524753	0.0536655	2.11978	1.49495	0.0392753	-0.0202569	-0.770219	-0.311256	-0.228005	2.02769	2.07974	-0.00485762	-0.00579529
2.16	-0.0535504	0.0513553	-0.100166	0.888871	0.988216	-0.308805	-0.314217	-0.0376703	-0.0700578	-0.29765	-0.39135	-0.0365291	9.23335e-05	0.688875	0.0435182	-0.143018	-0.622422	0.01973	-0.0492981	0.000189407	-0.217356	-0.108066	0.243584	-0.101936	-0.526568	0.0494317	2.1359	1.49583	0.0392753	-0.0202569	-0.780029	-0.303208	-0.236883	2.03929	2.08304	-0.00485762	-0.00579529
2.17	-0.0583046	0.04195	-0.0997196	0.890615	0.990238	-0.30893	-0.324059	-0.0355506	-0.0838005	-0.309136	-0.452181	-0.0365291	9.23335e-05	0.660074	0.0434094	-0.134201	-0.507391	0.0247697	-0.0492981	0.000189407	-0.209519	-0.098988	0.246198	-0.113226	-0.529084	0.0456516	2.14939	1.49689	0.0392753	-0.0202569	-0.787344	-0.295022	-0.244219	2.05114	2.08865	-0.00485762	-0.00579529
2.18	-0.061275	0.0298768	-0.101011	0.89249	0.991305	-0.308927	-0.328725	-0.0312912	-0.0944128	-0.335212	-0.499031	-0.0365291	9.23335e-05	0.628862	0.0396091	-0.12666	-0.405405	0.0284852	-0.0492981	0.000189407	-0.203567	-0.0870158	0.249177	-0.125657	-0.532211	0.0423821	2.16015	1.49804	0.0392753	-0.0202569	-0.792207	-0.286937	-0.250048	2.06312	2.0949	-0.00485762	-0.00579529
2.19	-0.0620746	0.0162897	-0.103818	0.894479	0.991487	-0.308803	-0.328527	-0.0261827	-0.101546	-0.376014	-0.530816	-0.0365291	9.23335e-05	0.596475	0.0328799	-0.122129	-0.320311	0.0304535	-0.0492981	0.000189407	-0.19994	-0.0734388	0.251947	-0.138899	-0.535763	0.0396578	2.16804	1.49928	0.0392753	-0.0202569	-0.794662	-0.279245	-0.254485	2.07512	2.1003	-0.00485762	-0.00579529
2.2	-0.0604325	0.00242574	-0.107606	0.896523	0.99083	-0.308595	-0.323799	-0.0214568	-0.105199	-0.431192	-0.547406	-0.0365291	9.23335e-05	0.564238	0.0244206	-0.121592	-0.255253	0.0302417	-0.0492981	0.000189407	-0.198959	-0.0595942	0.253689	-0.152694	-0.539477	0.0374695	2.17291	1.50077	0.0392753	-0.0202569	-0.794741	-0.272314	-0.257688	2.08696	2.10364	-0.00485762	-0.00579529
2.21	-0.0562516	-0.0104983	-0.111624	0.898538	0.98935	-0.308377	-0.314838	-0.0182184	-0.105803	-0.499881	-0.549797	-0.0365291	9.23335e-05	0.533577	0.0156979	-0.125135	-0.212494	0.0276023	-0.0492981	0.000189407	-0.200762	-0.0467532	0.253456	-0.166891	-0.543022	0.0357383	2.17463	1.50278	0.0392753	-0.0202569	-0.792445	-0.266594	-0.259806	2.0984	2.10408	-0.00485762	-0.00579529
2.22	-0.0496282	-0.0213684	-0.115032	0.900426	0.98703	-0.30825	-0.301869	-0.0174187	-0.104233	-0.580716	-0.540107	-0.0365291	9.23335e-05	0.505945	0.00825992	-0.131992	-0.193266	0.0226689	-0.0492981	0.000189407	-0.205287	-0.036034	0.250314	-0.181444	-0.546019	0.0342928	2.17304	1.50572	0.0392753	-0.0202569	-0.787704	-0.262597	-0.260929	2.1091	2.1012	-0.00485762	-0.00579529
2.23	-0.0408314	-0.0292451	-0.117026	0.902074	0.983824	-0.308319	-0.285043	-0.0198289	-0.10168	-0.671895	-0.521307	-0.0365291	9.23335e-05	0.482643	0.00356389	-0.140759	-0.197595	0.0161174	-0.0492981	0.000189407	-0.212336	-0.0283425	0.243461	-0.196385	-0.548066	0.0328617	2.16796	1.51008	0.0392753	-0.0202569	-0.78032	-0.26086	-0.261051	2.11859	2.09505	-0.00485762	-0.00579529
2.24	-0.0302764	-0.0333975	-0.116941	0.903369	0.979673	-0.308673	-0.264472	-0.0259688	-0.0993786	-0.771292	-0.496744	-0.0365291	9.23335e-05	0.464552	0.00281984	-0.149709	-0.224182	0.00929055	-0.0492981	0.000189407	-0.22168	-0.0243195	0.232336	-0.211779	-0.548747	0.0310891	2.15911	1.51635	0.0392753	-0.0202569	-0.769931	-0.261885	-0.26004	2.12624	2.08625	-0.00485762	-0.00579529
2.25	-0.0183591	-0.0333818	-0.114341	0.90422	0.974648	-0.309361	-0.24023	-0.0359945	-0.0982426	-0.876573	-0.469598	-0.0365291	9.23335e-05	0.451925	0.00686327	-0.157151	-0.27041	0.0042455	-0.0492981	0.000189407	-0.233116	-0.02431	0.216701	-0.227679	-0.547666	0.0285766	2.14613	1.52491	0.0392753	-0.0202569	-0.755996	-0.266077	-0.257641	2.13128	2.076	-0.00485762	-0.00579529
2.26	-0.00539102	-0.0291172	-0.109082	0.904579	0.968948	-0.310372	-0.212381	-0.0495651	-0.0985568	-0.985299	-0.442424	-0.0365291	9.23335e-05	0.444244	0.0160459	-0.161759	-0.332518	0.00360157	-0.0492981	0.000189407	-0.246495	-0.0283303	0.196702	-0.244114	-0.544471	0.0249481	2.12852	1.53596	0.0392753	-0.0202569	-0.737832	-0.273681	-0.253483	2.13286	2.066	-0.00485762	-0.00579529
2.27	0.00829162	-0.0209286	-0.101355	0.904427	0.962976	-0.311633	-0.180997	-0.0657477	-0.0998192	-1.09504	-0.416872	-0.0365291	9.23335e-05	0.440199	0.0301577	-0.162807	-0.40588	0.0100787	-0.0492981	0.000189407	-0.261712	-0.0360453	0.172907	-0.261093	-0.538904	0.0199289	2.10577	1.54935	0.0392753	-0.0202569	-0.714714	-0.284734	-0.247123	2.13017	2.05831	-0.00485762	-0.00579529
2.28	0.0223432	-0.00953528	-0.0916786	0.903727	0.957151	-0.312993	-0.146112	-0.0830316	-0.100828	-1.20342	-0.393616	-0.0365291	9.23335e-05	0.437852	0.0484065	-0.160256	-0.485276	0.0257947	-0.0492981	0.000189407	-0.278582	-0.0467603	0.146301	-0.278624	-0.530843	0.0134227	2.07741	1.56452	0.0392753	-0.0202569	-0.686012	-0.299033	-0.238107	2.12256	2.05501	-0.00485762	-0.00579529
2.29	0.0363595	0.00398972	-0.0808417	0.902447	0.951713	-0.314287	-0.107688	-0.099491	-0.0999999	-1.30822	-0.372471	-0.0365291	9.23335e-05	0.43494	0.069492	-0.15466	-0.565295	0.0516401	-0.0492981	0.000189407	-0.296727	-0.0594664	0.118182	-0.296726	-0.520351	0.00557304	2.04316	1.58052	0.0392753	-0.0202569	-0.651344	-0.316125	-0.226061	2.10976	2.05782	-0.00485762	-0.00579529
2.3	0.0498409	0.0183364	-0.0697703	0.900623	0.946713	-0.315402	-0.0656233	-0.113077	-0.0958341	-1.40739	-0.352663	-0.0365291	9.23335e-05	0.429299	0.0917499	-0.146916	-0.640907	0.0870492	-0.0492981	0.000189407	-0.315519	-0.0729175	0.0899876	-0.315414	-0.5077	-0.00321713	2.00316	1.59596	0.0392753	-0.0202569	-0.610715	-0.335332	-0.210797	2.09199	2.06772	-0.00485762	-0.00579529
2.31	0.0622473	0.0321184	-0.0593495	0.898365	0.942179	-0.316268	-0.019813	-0.121983	-0.0873813	-1.49908	-0.333175	-0.0365291	9.23335e-05	0.419252	0.113364	-0.137973	-0.708045	0.130217	-0.0492981	0.000189407	-0.334098	-0.0857435	0.0630599	-0.334692	-0.493367	-0.0123258	1.95805	1.60915	0.0392753	-0.0202569	-0.564606	-0.355801	-0.192394	2.0701	2.08471	-0.00485762	-0.00579529
2.32	0.0730644	0.0440081	-0.0502222	0.895807	0.9382	-0.31683	0.0297508	-0.125011	-0.0745852	-1.58167	-0.313076	-0.0365291	9.23335e-05	0.403825	0.132634	-0.128557	-0.763965	0.178575	-0.0492981	0.000189407	-0.351487	-0.0966184	0.0383937	-0.354557	-0.477978	-0.021019	1.90908	1.61822	0.0392753	-0.0202569	-0.513979	-0.376604	-0.171234	2.04555	2.10758	-0.00485762	-0.00579529
2.33	0.0818516	0.052946	-0.0426346	0.893095	0.934891	-0.3171	0.0828836	-0.121847	-0.0584188	-1.65376	-0.291755	-0.0365291	9.23335e-05	0.382737	0.148216	-0.119009	-0.807266	0.229283	-0.0492981	0.000189407	-0.366735	-0.104408	0.0164524	-0.375033	-0.462221	-0.0286189	1.85813	1.62156	0.0392753	-0.0202569	-0.460206	-0.396839	-0.147964	2.02029	2.13411	-0.00485762	-0.00579529
